<?xml version="1.0" encoding="UTF-8" standalone="no"?> <!-- Created with Vectornator for iOS (http://vectornator.io/) --><!DOCTYPE svg PUBLIC "-//W3C//DTD SVG 1.1//EN" "http://www.w3.org/Graphics/SVG/1.1/DTD/svg11.dtd">
<svg xml:space="preserve" viewBox="0 0 10000 10000" xmlns:xlink="http://www.w3.org/1999/xlink" xmlns="http://www.w3.org/2000/svg" style="fill-rule:nonzero;clip-rule:evenodd;stroke-linecap:round;stroke-linejoin:round;" xmlns:vectornator="http://vectornator.io" version="1.1" height="100%" width="100%">
<metadata>
<vectornator:setting value="true" key="VNDimensionsVisible"/>
<vectornator:setting key="UndoHistoryDisabled" value="true"/>
<vectornator:setting key="WDGuidesVisible" value="true"/>
<vectornator:setting key="WDSnapToPoints" value="false"/>
<vectornator:setting value="false" key="IsTimeLapseWatermarkDisabled"/>
<vectornator:setting value="false" key="WDSnapToEdges"/>
<vectornator:setting value="true" key="VNSnapToGuides"/>
<vectornator:setting value="false" key="WDIsolateActiveLayer"/>
<vectornator:setting key="WDRulersVisible" value="true"/>
<vectornator:setting key="WDSnapToGrid" value="true"/>
<vectornator:setting value="true" key="WDDynamicGuides"/>
<vectornator:setting key="WDDisplayWhiteBackground" value="false"/>
<vectornator:setting key="WDOutlineMode" value="false"/>
<vectornator:setting key="WDUnits" value="Pixels"/>
<vectornator:setting value="false" key="WDCMYKEnabledKey"/>
</metadata>
<defs/>
<g id="Ebene 1" vectornator:layerName="Ebene 1">
<path d="M8309.97+1343.09C8307.72+1343.1+8305.47+1343.22+8303.22+1343.28C8300.67+1343.35+8298.14+1343.37+8295.59+1343.5C8294.2+1343.57+8292.8+1343.72+8291.41+1343.81C8288.01+1344.03+8284.61+1344.23+8281.22+1344.56C8280.26+1344.66+8279.3+1344.8+8278.34+1344.91C8269.94+1345.82+8261.57+1347.06+8253.25+1348.69C8249.26+1349.47+8245.3+1350.37+8241.34+1351.31C8240.56+1351.5+8239.78+1351.65+8239+1351.84C8235+1352.83+8231+1353.94+8227.03+1355.09C8226.39+1355.28+8225.74+1355.43+8225.09+1355.62C8221.95+1356.56+8218.84+1357.61+8215.72+1358.66C8214.17+1359.17+8212.6+1359.64+8211.06+1360.19C8208.99+1360.92+8206.94+1361.75+8204.88+1362.53C8202.38+1363.47+8199.88+1364.36+8197.41+1365.38C8195.3+1366.24+8193.22+1367.21+8191.12+1368.12C8188.74+1369.16+8186.36+1370.18+8184+1371.28C8182.68+1371.9+8181.38+1372.58+8180.06+1373.22C8172.66+1376.81+8165.34+1380.66+8158.19+1384.91C8155.35+1386.59+8152.57+1388.37+8149.78+1390.16C8148.29+1391.11+8146.79+1392.02+8145.31+1393C8144.09+1393.81+8142.9+1394.67+8141.69+1395.5C8134.73+1400.27+8127.9+1405.33+8121.28+1410.75C8114.55+1416.26+8108.03+1422.19+8101.69+1428.38C8100.66+1429.38+8099.58+1430.32+8098.56+1431.34C8098.5+1431.41+8098.44+1431.47+8098.38+1431.53C8098.3+1431.6+8098.23+1431.68+8098.16+1431.75C6887.91+2651.6+7291.19+2244.85+6887.91+2651.59C6556.19+2986.16+6224.59+3320.81+5893.28+3655.78C5797.32+3752.81+5701.38+3849.89+5605.47+3946.97C5526.29+4027.12+5447.15+4107.31+5367.75+4187.25C5297.81+4257.66+5227.66+4327.84+5157.44+4397.97C5102.85+4452.49+5048.22+4506.96+4993.59+4561.44C4720.07+4284.81+4446.84+4007.88+4173.16+3731.41C3689.31+3242.62+3204.36+2754.94+2719.03+2267.62C2531.29+2079.11+2343.48+1890.66+2155.62+1702.25C2094.66+1641.11+2033.72+1579.98+1972.75+1518.84C1953.01+1499.05+1933.27+1479.26+1913.53+1459.47C1908.14+1454.07+1902.76+1448.65+1897.38+1443.25C1896.17+1442.04+1894.97+1440.81+1893.75+1439.62C1891.36+1437.3+1889.04+1434.89+1886.56+1432.66C1881.14+1427.77+1875.75+1422.85+1870.06+1418.28C1863.64+1413.13+1857.07+1408.14+1850.25+1403.53C1842.6+1398.37+1834.78+1393.44+1826.69+1389C1817.71+1384.08+1808.52+1379.48+1799.09+1375.5C1788.8+1371.15+1778.3+1367.21+1767.59+1364.03C1756.16+1360.63+1744.53+1357.81+1732.78+1355.78C1720.56+1353.67+1708.2+1352.23+1695.81+1351.62C1683.32+1351.01+1670.76+1351.2+1658.28+1352.12C1646.07+1353.03+1633.92+1354.76+1621.91+1357.12C1610.49+1359.38+1599.21+1362.39+1588.12+1365.94C1577.85+1369.23+1567.8+1373.23+1557.94+1377.59C1548.96+1381.57+1540.23+1386.11+1531.69+1390.94C1524.03+1395.27+1516.63+1400.04+1509.38+1405.03C1502.93+1409.47+1496.7+1414.26+1490.62+1419.19C1485.25+1423.55+1480.16+1428.23+1475.03+1432.88C1472.69+1435+1470.49+1437.3+1468.22+1439.5C1465.84+1441.81+1463.5+1444.18+1461.16+1446.53C1452.82+1454.88+1444.52+1463.27+1436.25+1471.69C1398.84+1509.76+1361.94+1548.35+1325.75+1587.59C1272.91+1644.9+1221.32+1703.34+1171.16+1763C1070.3+1882.95+975.075+2007.66+885.906+2136.53C734.601+2355.21+600.682+2585.87+486.031+2825.81C362.765+3083.78+261.863+3352.41+184.75+3627.72C121.131+3854.85+73.7624+4086.55+43+4320.41C8.28452+4584.32-5.39289+4851.01+1.875+5117.09C8.90007+5374.28+35.4956+5630.91+81.7812+5884C133.651+6167.63+210.301+6446.71+310.531+6717.06C423.041+7020.54+565.344+7312.89+734.5+7588.81C891.572+7845.03+1071.85+8086.99+1272.19+8311C1489.92+8554.45+1731.46+8776.65+1992.25+8973.28C2227.62+9150.75+2478.63+9307.41+2741.53+9440.75C2965.05+9554.12+3197.19+9650.58+3435.25+9728.94C3644.31+9797.75+3857.92+9852.66+4074.25+9893.19C4382.83+9951+4696.79+9979.37+5010.72+9978.75C5254.82+9978.27+5498.95+9960.16+5740.41+9924.28C6026.84+9881.72+6309.54+9814.21+6584.22+9722.5C6879.25+9623.99+7164.94+9497.71+7436.44+9345.94C7815.5+9134.03+8166.67+8872.54+8478.56+8570.38C8809.46+8249.79+9096.06+7883.69+9327.31+7485.19C9459.34+7257.68+9573.41+7019.72+9667.88+6774.22C9771.27+6505.53+9851.26+6227.87+9906.59+5945.34C10011.3+5410.57+10028+4858.63+9956.75+4318.41C9924+4070.2+9872.48+3824.46+9802.78+3584C9736.22+3354.36+9653+3129.54+9554.06+2911.88C9389.56+2549.97+9181.56+2207.95+8936.19+1895.19C8849.36+1784.51+8757.9+1677.47+8662.09+1574.47C8616.63+1525.59+8662.11+1574.45+8522.84+1430.56C8522.71+1430.43+8522.57+1430.32+8522.44+1430.19C8518.9+1426.68+8515.28+1423.26+8511.62+1419.97C8511.6+1419.95+8511.58+1419.93+8511.56+1419.91C8503.97+1413.07+8496.12+1406.7+8488.03+1400.78C8487.87+1400.67+8487.72+1400.55+8487.56+1400.44C8483.66+1397.59+8479.7+1394.85+8475.69+1392.22C8475.53+1392.12+8475.38+1392.01+8475.22+1391.91C8473.57+1390.82+8471.86+1389.86+8470.19+1388.81C8467.65+1387.22+8465.14+1385.57+8462.56+1384.06C8462.09+1383.79+8461.6+1383.56+8461.12+1383.28C8457.32+1381.08+8453.5+1378.92+8449.62+1376.91C8449.05+1376.61+8448.45+1376.36+8447.88+1376.06C8444.08+1374.12+8440.26+1372.21+8436.41+1370.44C8432.13+1368.47+8427.81+1366.6+8423.47+1364.84C8423.29+1364.77+8423.12+1364.7+8422.94+1364.62C8418.59+1362.88+8414.22+1361.25+8409.81+1359.72C8409.63+1359.66+8409.46+1359.59+8409.28+1359.53C8404.87+1358.01+8400.43+1356.59+8395.97+1355.28C8395.79+1355.23+8395.61+1355.18+8395.44+1355.12C8390.97+1353.82+8386.48+1352.62+8381.97+1351.53C8381.79+1351.49+8381.61+1351.45+8381.44+1351.41C8380.23+1351.12+8379+1350.9+8377.78+1350.62C8369.59+1348.76+8361.36+1347.2+8353.06+1346.03C8348.49+1345.39+8343.91+1344.84+8339.31+1344.41C8339.28+1344.4+8339.25+1344.41+8339.22+1344.41C8334.47+1343.96+8329.7+1343.62+8324.94+1343.41C8324.89+1343.4+8324.83+1343.41+8324.78+1343.41C8319.85+1343.18+8314.9+1343.08+8309.97+1343.09ZM8305.53+2074.72C8364.05+2141.26+8420.6+2209.53+8475+2279.47C8700.84+2569.81+8890.24+2888.34+9036.97+3225.66C9130.64+3441+9206.87+3663.9+9264.72+3891.5C9320.78+4112.05+9359.52+4336.99+9380.69+4563.56C9412.16+4900.38+9405.31+5240.97+9359.81+5576.19C9333.6+5769.34+9294.53+5960.71+9242.84+6148.66C9179.43+6379.27+9096.97+6604.67+8996.66+6821.78C8892.6+7047+8769.38+7263.37+8628.84+7467.81C8402.63+7796.9+8131.69+8094.98+7825.75+8351.62C7631.92+8514.22+7424.1+8660.14+7205.28+8787.12C7043.82+8880.82+6876.38+8964.2+6704.31+9036.59C6607.09+9077.5+6508.39+9115.01+6408.41+9148.62C6352.42+9167.45+6296.12+9185.27+6239.44+9201.88C6129.12+9234.2+6017.49+9262.15+5904.97+9285.66C5628.83+9343.34+5347.24+9374.15+5065.19+9378.28C4966.84+9379.72+4868.39+9378.05+4770.16+9372.88C4690.37+9368.67+4610.71+9362.53+4531.25+9354.12C4384.82+9338.64+4239.17+9315.77+4095.03+9285.66C3748.69+9213.3+3411.34+9098.62+3092.59+8945.03C2699.9+8755.81+2335.86+8507.75+2015.66+8212C1851.81+8060.67+1699.4+7896.97+1560.19+7722.72C1427.94+7557.18+1307.64+7382.1+1200.53+7199.28C1083.62+6999.72+982.536+6790.91+898.562+6575.41C817.762+6368.05+752.857+6154.47+704.625+5937.22C596.819+5451.63+572.335+4947.74+630.969+4453.84C654.757+4253.46+692.37+4054.72+743.531+3859.53C789.236+3685.16+845.812+3513.64+912.719+3346.25C981.089+3175.2+1060.31+3008.48+1149.69+2847.41C1192.04+2771.08+1236.73+2696.1+1283.47+2622.38C1317.36+2568.91+1352.53+2516.24+1388.75+2464.31C1476.5+2338.5+1570.87+2217.29+1671.22+2101.28C1676.63+2095.02+1682.14+2088.85+1687.59+2082.62C1732.57+2127.73+1777.53+2172.83+1822.5+2217.94C2058.15+2454.33+2293.75+2690.8+2529.22+2927.38C2962.39+3362.59+3395.19+3798.19+3827.06+4234.69C4073.68+4483.95+4319.96+4733.56+4566.5+4982.91C4483.07+5066.51+4401.02+5151.48+4321.66+5238.97C4230.4+5339.57+4142.51+5443.42+4060.94+5552.06C3989.37+5647.38+3922.6+5746.42+3863.81+5850.16C3809.53+5945.94+3762.09+6045.8+3725.09+6149.56C3693.44+6238.35+3669.47+6329.99+3655.5+6423.25C3640.31+6524.64+3637.09+6627.84+3647.09+6729.91C3653.46+6794.85+3665.09+6859.26+3681.81+6922.34C3693.23+6965.42+3707+7007.87+3722.91+7049.5C3763.37+7155.38+3817.75+7255.66+3881.91+7349C3931.91+7421.75+3987.81+7490.33+4047.72+7555.12C4104.94+7617.01+4165.92+7675.38+4229.5+7730.69C4248.65+7747.35+4268.04+7763.73+4287.62+7779.88C4292.6+7783.98+4297.58+7788.06+4302.59+7792.12C4304.77+7793.89+4306.91+7795.69+4309.12+7797.41C4313.5+7800.8+4317.78+7804.34+4322.28+7807.56C4328.16+7811.77+4334.25+7815.68+4340.25+7819.72C4344.35+7822.48+4348.65+7824.99+4352.84+7827.59C4365.52+7835.47+4378.3+7843.18+4391.16+7850.75C4431.61+7874.56+4472.9+7896.94+4515.06+7917.56C4618.74+7968.28+4727.77+8008.38+4840.41+8033.91C4962.78+8061.63+5088.79+8071.71+5213.97+8062.53C5271.36+8058.32+5328.47+8050.16+5384.78+8038.28C5427.54+8029.26+5469.84+8018.09+5511.53+8005C5541.86+7995.48+5571.88+7984.95+5601.53+7973.47C5825.58+7886.72+6025.97+7748.36+6208.53+7594C6238.36+7568.78+6267.74+7543.03+6296.81+7516.94C6340.76+7477.5+6383.86+7437.11+6426.34+7396.09C6481.22+7343.11+6535.14+7289.13+6588.41+7234.53C6668.04+7152.91+6746.39+7070.02+6824.72+6987.16C6845.83+6964.82+6866.95+6942.49+6888.09+6920.19C6893.7+6914.27+6899.3+6908.35+6904.91+6902.44C6905.98+6901.31+6907.07+6900.21+6908.12+6899.06C6910.19+6896.82+6912.32+6894.65+6914.31+6892.34C6918.64+6887.33+6923.01+6882.33+6927.06+6877.09C6931.63+6871.19+6936.07+6865.16+6940.19+6858.94C6944.81+6851.95+6949.23+6844.82+6953.25+6837.47C6957.73+6829.28+6961.96+6820.95+6965.66+6812.38C6969.73+6802.94+6973.44+6793.33+6976.53+6783.53C6979.88+6772.92+6982.78+6762.13+6984.94+6751.22C6987.22+6739.66+6988.94+6727.96+6989.88+6716.22C6990.84+6704.11+6991.11+6691.92+6990.62+6679.78C6990.13+6667.62+6988.88+6655.46+6986.94+6643.44C6985.05+6631.74+6982.36+6620.15+6979.12+6608.75C6976.05+6597.95+6972.28+6587.33+6968.03+6576.94C6964.09+6567.31+6959.53+6557.92+6954.62+6548.75C6950.16+6540.4+6945.17+6532.33+6939.94+6524.44C6935.23+6517.34+6930.13+6510.51+6924.84+6503.84C6920.13+6497.9+6915+6492.28+6909.94+6486.62C6907.61+6484.03+6905.08+6481.6+6902.66+6479.09C6902.06+6478.47+6901.45+6477.85+6900.84+6477.25C6896.69+6473.1+6892.53+6468.96+6888.38+6464.81C6874.4+6450.83+6860.41+6436.83+6846.44+6422.84C6546.88+6123.19+6247.47+5823.39+5948.41+5523.25C5770.71+5344.92+5593.25+5166.36+5415.91+4987.69C5425.16+4978.46+5434.4+4969.23+5443.66+4960C5542.75+4861.15+5641.88+4762.32+5740.66+4663.16C5806.04+4597.51+5871.21+4531.65+5936.34+4465.75C6132.83+4266.95+6329.31+4068.13+6525.94+3869.47C7142.86+3246.19+6793.38+3599.55+8305.53+2074.72ZM4988.75+5409.12C5045.62+5466.43+5102.46+5523.77+5159.38+5581.03C5452.02+5875.45+5745.17+6169.36+6038.5+6463.09C6116.52+6541.22+6194.58+6619.33+6272.62+6697.44C6242.49+6729.08+6212.3+6760.66+6181.84+6792C6070.46+6906.62+5956.95+7019.52+5835.5+7123.56C5780.54+7170.65+5723.9+7215.87+5664.91+7257.81C5623.16+7287.49+5580.22+7315.61+5535.75+7341.06C5477.42+7374.45+5416.6+7403.75+5352.97+7425.59C5316.19+7438.22+5278.53+7448.36+5240.25+7455.25C5204.8+7461.63+5168.86+7465.25+5132.84+7465.81C5071.18+7466.78+5009.62+7458.61+4949.97+7443.12C4881.05+7425.24+4814.82+7397.89+4751.78+7364.97C4730.78+7354+4710.14+7342.38+4689.81+7330.28C4684.35+7327.03+4678.94+7323.71+4673.53+7320.38C4670.69+7318.04+4667.84+7315.74+4665+7313.41C4650.93+7301.82+4637.06+7289.99+4623.31+7278.03C4581.56+7241.71+4541.31+7203.63+4503.09+7163.59C4455.6+7113.85+4411.36+7060.74+4372.75+7003.78C4359.82+6984.71+4347.7+6965.23+4336.22+6945.56C4336.23+6945.59+4336.17+6945.44+4336.19+6945.47C4335.28+6943.87+4334.36+6942.28+4333.44+6940.69C4333.48+6940.77+4333.38+6940.56+4333.31+6940.44C4333.29+6940.41+4333.27+6940.38+4333.25+6940.34C4320.29+6917.26+4308.19+6893.74+4297.47+6869.53C4277.85+6825.23+4262.63+6778.91+4253.12+6731.38C4247.05+6700.99+4243.31+6670.17+4241.94+6639.22C4235.87+6502.79+4276.03+6368.86+4333.59+6246.5C4358.15+6194.3+4386.03+6143.73+4416.12+6094.53C4446.81+6044.38+4479.78+5995.67+4514.31+5948.09C4561.63+5882.91+4611.88+5819.86+4663.94+5758.41C4701.48+5714.09+4739.93+5670.52+4779.16+5627.69C4847.34+5553.23+4917.47+5480.62+4988.75+5409.12Z" fill="#000000" opacity="1"/>
</g>
</svg>
